<?xml version="1.0" encoding="UTF-8"?>
<svg width="100%" height="100%" viewBox="0 0 20 20" version="1.1" xmlns="http://www.w3.org/2000/svg" xmlns:xlink="http://www.w3.org/1999/xlink">
    <title>moon</title>
    <g id="Page-1" stroke="none" stroke-width="1" fill="none" fill-rule="evenodd">
        <g id="Desktop-HD-Copy" transform="translate(-696.000000, -950.000000)" fill="#000000" fill-rule="nonzero">
            <g id="Group-2" transform="translate(688.000000, 946.000000)">
                <g id="moon" transform="translate(8.000000, 4.000000)">
                    <path d="M10.3571429,20 C4.63705081,20 1.26882631e-15,15.3629492 1.26882631e-15,9.64285714 C1.26882631e-15,5.44642857 2.41071429,1.68392857 6.14330357,0.059375 C6.41251458,-0.057953945 6.72610393,0.001444544 6.93375826,0.20909888 C7.1414126,0.416753216 7.20081109,0.730342566 7.08348214,0.999553571 C6.65491071,1.98348214 6.42857143,3.24375 6.42857143,4.64285714 C6.42857143,9.56607143 10.4339286,13.5714286 15.3571429,13.5714286 C16.75625,13.5714286 18.0165179,13.3450893 19.0004464,12.9165179 C19.2696574,12.7991889 19.5832468,12.8585874 19.7909011,13.0662417 C19.9985555,13.2738961 20.0579539,13.5874854 19.940625,13.8566964 C18.3160714,17.5892857 14.5535714,20 10.3571429,20 Z" id="Path"></path>
                </g>
            </g>
        </g>
    </g>
</svg>