<?xml version="1.0" encoding="UTF-8"?>
<svg width="100%" height="100%" viewBox="0 0 20 20" version="1.1" xmlns="http://www.w3.org/2000/svg" xmlns:xlink="http://www.w3.org/1999/xlink">
    <title>sunny</title>
    <g id="Page-1" stroke="none" stroke-width="1" fill="none" fill-rule="evenodd">
        <g id="Desktop-HD" transform="translate(-720.000000, -950.000000)" fill="#FFFFFF" fill-rule="nonzero">
            <g id="Group-2" transform="translate(688.000000, 946.000000)">
                <g id="sunny" transform="translate(32.000000, 4.000000)">
                    <path d="M10,4 C9.48453423,4 9.06666667,3.57175063 9.06666667,3.04347826 L9.06666667,0.956521739 C9.06666667,0.42824937 9.48453423,0 10,0 C10.5154658,0 10.9333333,0.42824937 10.9333333,0.956521739 L10.9333333,3.04347826 C10.9333333,3.57175063 10.5154658,4 10,4 Z" id="Path"></path>
                    <path d="M10,20 C9.48453423,20 9.06666667,19.5717506 9.06666667,19.0434783 L9.06666667,16.9565217 C9.06666667,16.4282494 9.48453423,16 10,16 C10.5154658,16 10.9333333,16.4282494 10.9333333,16.9565217 L10.9333333,19.0434783 C10.9333333,19.5717506 10.5154658,20 10,20 Z" id="Path"></path>
                    <path d="M14.8477735,6.13333333 C14.4510105,6.13328402 14.0933251,5.89429785 13.9414382,5.52776808 C13.7895512,5.1612383 13.8733593,4.73931057 14.1537986,4.45864978 L15.6675203,2.9449684 C16.0521051,2.57039273 16.6663287,2.57443748 17.0459468,2.95404553 C17.425565,3.33365358 17.4296098,3.94786075 17.0550242,4.33243534 L15.5413025,5.84611672 C15.3575297,6.03028464 15.1079504,6.13364463 14.8477735,6.13333333 L14.8477735,6.13333333 Z" id="Path"></path>
                    <path d="M3.64249712,17.3333333 C3.2477538,17.3332844 2.89191271,17.0954478 2.74091614,16.7307351 C2.58991956,16.3660225 2.67350685,15.9462654 2.95269804,15.6672126 L4.4582788,14.1616716 C4.70368982,13.9097163 5.06569635,13.8093047 5.4058343,13.8988434 C5.74597224,13.9883822 6.01161462,14.2540175 6.10115571,14.5941465 C6.1906968,14.9342754 6.09028259,15.2962724 5.83832057,15.541677 L4.3327398,17.0472179 C4.1498919,17.2306256 3.90148253,17.3335946 3.64249712,17.3333333 Z" id="Path"></path>
                    <path d="M19.0434783,10.9333333 L16.9565217,10.9333333 C16.4282494,10.9333333 16,10.5154658 16,10 C16,9.48453423 16.4282494,9.06666667 16.9565217,9.06666667 L19.0434783,9.06666667 C19.5717506,9.06666667 20,9.48453423 20,10 C20,10.5154658 19.5717506,10.9333333 19.0434783,10.9333333 Z" id="Path"></path>
                    <path d="M3.04347826,10.9333333 L0.956521739,10.9333333 C0.42824937,10.9333333 0,10.5154658 0,10 C0,9.48453423 0.42824937,9.06666667 0.956521739,9.06666667 L3.04347826,9.06666667 C3.57175063,9.06666667 4,9.48453423 4,10 C4,10.5154658 3.57175063,10.9333333 3.04347826,10.9333333 Z" id="Path"></path>
                    <path d="M16.3523526,17.3333333 C16.0920003,17.333596 15.8422799,17.2300836 15.658467,17.0457079 L14.14494,15.5322212 C13.7704026,15.147696 13.7744469,14.5335678 14.1540162,14.1540086 C14.5335855,13.7744493 15.14773,13.7704051 15.5322654,14.1449326 L17.0457923,15.6584194 C17.3264571,15.9389449 17.4104855,16.3609173 17.258692,16.7275548 C17.1068985,17.0941923 16.7491793,17.3332842 16.3523526,17.3333333 L16.3523526,17.3333333 Z" id="Path"></path>
                    <path d="M5.15222646,6.13333333 C4.89201047,6.13384113 4.64235826,6.03045098 4.45869751,5.84611564 L2.94497581,4.33243477 C2.57039017,3.94786031 2.57443502,3.33365336 2.95405319,2.95404543 C3.33367135,2.57443751 3.94789487,2.57039276 4.3324797,2.94496831 L5.8462014,4.45864918 C6.12664071,4.73930987 6.2104488,5.16123746 6.05856184,5.52776711 C5.90667488,5.89429676 5.54898946,6.13328284 5.15222646,6.13333333 Z" id="Path"></path>
                    <path d="M10,14.4 C7.5699471,14.4 5.6,12.4300529 5.6,10 C5.6,7.5699471 7.5699471,5.6 10,5.6 C12.4300529,5.6 14.4,7.5699471 14.4,10 C14.3971475,12.4288704 12.4288704,14.3971475 10,14.4 Z" id="Path"></path>
                </g>
            </g>
        </g>
    </g>
</svg>